<?xml version="1.0" encoding="UTF-8" standalone="no"?>
<!-- Generator: Adobe Illustrator 19.2.1, SVG Export Plug-In . SVG Version: 6.00 Build 0)  -->

<svg
   version="1.1"
   id="layer"
   x="0px"
   y="0px"
   viewBox="0 0 600 300"
   xml:space="preserve"
   sodipodi:docname="ecmcLogo_v2.svg"
   width="600"
   height="300"
   inkscape:version="1.1 (c4e8f9e, 2021-05-24)"
   xmlns:inkscape="http://www.inkscape.org/namespaces/inkscape"
   xmlns:sodipodi="http://sodipodi.sourceforge.net/DTD/sodipodi-0.dtd"
   xmlns="http://www.w3.org/2000/svg"
   xmlns:svg="http://www.w3.org/2000/svg"><defs
   id="defs173">
	
	
	
	
	
	
	
	
	
</defs><sodipodi:namedview
   id="namedview171"
   pagecolor="#ffffff"
   bordercolor="#666666"
   borderopacity="1.0"
   inkscape:pageshadow="2"
   inkscape:pageopacity="0.0"
   inkscape:pagecheckerboard="0"
   showgrid="false"
   height="651px"
   inkscape:zoom="1.6526077"
   inkscape:cx="286.51688"
   inkscape:cy="196.35634"
   inkscape:window-width="1680"
   inkscape:window-height="997"
   inkscape:window-x="0"
   inkscape:window-y="25"
   inkscape:window-maximized="0"
   inkscape:current-layer="layer" />
<style
   type="text/css"
   id="style108">
	.st0{fill:#E2001A;}
</style>










<g
   id="g10438"
   transform="translate(0,-5)"><polygon
     points="518.9,299.9 585,299.9 585,277.7 466,277.7 518.9,319.8 "
     id="polygon110"
     transform="translate(-10.6,-217.1)" /><polygon
     class="st0"
     points="532.1,247 373.6,247 373.6,269.2 585,269.2 532.1,227.1 "
     id="polygon112"
     transform="translate(-10.6,-217.1)" /><path
     d="m 278.3,117 c 4.3,0 8.5,-1 12.9,-2.8 l -6.4,21.5 c -3.4,0.7 -7.2,1.2 -10.7,1.2 -21.2,0 -38.2,-13.1 -38.2,-39.799998 0,-25.1 17.7,-37.7 38.2,-37.7 6.8,0 10.8,1 17.3,2.4 v 19.8 c -4,-1.5 -8.1,-2.8 -12.2,-2.8 -10.4,0 -18.3,6.6 -18.3,18.8 C 260.9,110.5 268.2,117 278.3,117"
     id="path146" /><path
     d="m 330.5,76.900002 h 0.2 L 337.6,101.5 H 323.5 Z M 291.8,135.7 h 24.4 l 3.9,-16.2 h 20.6 l 4.2,16.2 h 25.6 L 347.8,60.700002 h -33.7 z"
     id="path150" /><g
     id="g154"
     transform="translate(-10.6,-217.1)">
	<path
   d="m 98.2,342.3 c -1.8,0.8 -3.6,1.5 -6,1.5 -4.4,0 -6.1,-2.5 -6.1,-9.2 v -34.8 h 12.1 v -7.9 H 86.1 v -20.8 h -9.7 v 20.8 H 67 v 7.9 h 9.4 v 37.9 c 0,10.4 4.7,14 13.6,14 2.7,0 5.9,-0.7 8.2,-1.5 z"
   id="path152" />
</g><polygon
     points="20.6,351.6 59.6,351.6 59.6,342.8 30.7,342.8 30.7,314.2 56.9,314.2 56.9,305.4 30.7,305.4 30.7,279.7 58.1,279.7 58.1,270.9 20.6,270.9 "
     id="polygon156"
     transform="translate(-10.6,-217.1)" /><g
     id="g166"
     transform="translate(-10.6,-217.1)">
	<path
   d="m 106.4,351.6 h 9.7 v -35.5 c 0,-10.6 4.9,-16 12.5,-16 6.2,0 9.7,4 9.7,13.4 v 38 h 9.7 v -40.9 c 0,-12.9 -6.9,-18.8 -17.2,-18.8 -6.8,0 -11.9,3.9 -14.4,8.9 h -0.2 V 271 h -9.7 v 80.6 z"
   id="path158" />
	<path
   d="m 169.4,317.6 c 0.2,-13.8 5.8,-18.4 12,-18.4 7.7,0 11.6,6.1 11.6,18.4 z m 33.3,7.4 v -5.2 c 0,-17.3 -7.4,-28 -20.7,-28 -14.7,0 -22.8,11.8 -22.8,30.3 0,18.5 8.1,30.3 23.7,30.3 5.9,0 11.9,-1.3 16.5,-3.5 l -0.5,-8.8 c -3.3,2.4 -8.7,4.9 -13.5,4.9 -10.8,0 -16.1,-6.4 -16.1,-20 z"
   id="path160" />
	<path
   d="m 213.4,351.6 h 9.7 v -31.2 c 0,-12.8 5.3,-19.3 12.8,-19.3 1.3,0 2.5,0.1 3.7,0.3 v -9.6 c -8.7,0 -13.6,2.9 -16.8,10.1 h -0.2 l -0.3,-9.2 h -9.4 c 0.1,4.2 0.5,8.4 0.5,12.7 z"
   id="path162" />
	<path
   d="m 445.9,353.4 c 6.1,0 11,-4.9 11,-11 0,-6.1 -4.9,-11 -11,-11 -6.1,0 -11,4.9 -11,11 0,6.1 5,11 11,11 m 0,-2.1 c -4.6,0 -8.3,-3.7 -8.3,-8.9 0,-5.2 3.7,-8.9 8.3,-8.9 4.6,0 8.3,3.7 8.3,8.9 0,5.2 -3.7,8.9 -8.3,8.9 m -4.2,-2.7 h 2.3 v -5.4 h 1.4 l 3.2,5.4 h 2.4 l -3.4,-5.5 c 2,-0.2 3.3,-1.2 3.3,-3.4 0,-2.6 -1.6,-3.7 -4.6,-3.7 h -4.6 z m 2.3,-10.7 h 2.1 c 1.2,0 2.5,0.2 2.5,1.7 0,1.7 -1.2,1.9 -2.6,1.9 h -2 z"
   id="path164" />
</g><polygon
     points="425.5,352.7 401,352.7 401,299.9 373.6,299.9 373.6,277.7 452.9,277.7 452.9,299.9 425.5,299.9 "
     id="polygon168"
     transform="translate(-10.6,-217.1)" /></g>
<g
   id="g800"
   transform="matrix(4,0,0,4,-195.14121,180.14531)"><g
     id="g772">
	<rect
   x="10"
   y="10"
   fill="#455a64"
   width="19"
   height="6"
   id="rect764" />
	<path
   fill="#455a64"
   d="m 9,43 h 30 v -2 c 0,-1.1 -0.9,-2 -2,-2 H 11 c -1.1,0 -2,0.9 -2,2 z"
   id="path766" />
	<polygon
   fill="#455a64"
   points="39,13.8 34.8,16.4 29.8,13 34.8,9.6 39,12.2 41,9 34.7,5 23.1,13 34.7,21 41,17 "
   id="polygon768" />
	<polygon
   fill="#455a64"
   points="9,11 18,39 25,39 16,11 "
   id="polygon770" />
</g><g
     id="g782">
	<g
   id="g776">
		<path
   fill="#ffc107"
   d="M 22.6,30.9 C 22.2,30.3 21.6,30 20.9,30 H 19 c -0.7,0 -1.3,0.3 -1.7,0.9 L 12,39 H 28 Z M 20,36 c -1.1,0 -2,-0.9 -2,-2 0,-1.1 0.9,-2 2,-2 1.1,0 2,0.9 2,2 0,1.1 -0.9,2 -2,2 z"
   id="path774" />
	</g>
	<path
   fill="#ffc107"
   d="m 13,7 c -3.3,0 -6,2.7 -6,6 0,3.3 2.7,6 6,6 3.3,0 6,-2.7 6,-6 0,-3.3 -2.7,-6 -6,-6 z m 0,8 c -1.1,0 -2,-0.9 -2,-2 0,-1.1 0.9,-2 2,-2 1.1,0 2,0.9 2,2 0,1.1 -0.9,2 -2,2 z"
   id="path778" />
	<path
   fill="#ffc107"
   d="m 30,18 h -3 c -1.1,0 -2,-0.9 -2,-2 v -6 c 0,-1.1 0.9,-2 2,-2 h 3 z"
   id="path780" />
</g></g><text
   xml:space="preserve"
   style="font-style:normal;font-weight:normal;font-size:64px;line-height:1.25;font-family:sans-serif;fill:#000000;fill-opacity:1;stroke:none"
   x="173.54036"
   y="194.40018"
   id="text1068"><tspan
     sodipodi:role="line"
     id="tspan1066"
     x="173.54036"
     y="194.40018"
     style="font-style:oblique;font-variant:normal;font-weight:300;font-stretch:normal;font-size:64px;font-family:Helvetica;-inkscape-font-specification:'Helvetica Light Oblique';font-variant-ligatures:normal;font-variant-caps:normal;font-variant-numeric:normal;font-variant-east-asian:normal">Motion Control</tspan><tspan
     sodipodi:role="line"
     x="173.54036"
     y="278.83731"
     style="font-style:oblique;font-variant:normal;font-weight:300;font-stretch:normal;font-size:64px;font-family:Helvetica;-inkscape-font-specification:'Helvetica Light Oblique';font-variant-ligatures:normal;font-variant-caps:normal;font-variant-numeric:normal;font-variant-east-asian:normal"
     id="tspan3794">config</tspan></text><g
   id="g7805"
   transform="matrix(0.34482759,0,0,0.34482759,82.203009,335.64429)"><path
     d="m 112,400 h 48 v 56 h -48 z"
     fill="#666666"
     id="path7620" /><path
     d="m 112,415 7.544,7.544 a 25.456,25.456 0 0 0 18,7.456 A 25.45,25.45 0 0 0 160,416.537 V 400 h -48 z"
     fill="#565655"
     id="path7622" /><path
     d="m 112,456 -16,16 v 16 h 80 v -16 l -16,-16 z"
     fill="#3f484f"
     id="path7624" /><path
     d="M 159.621,456 A 167.077,167.077 0 0 1 96.2,471.8 L 96,472 h 80 l -16,-16 z"
     fill="#2a3135"
     id="path7626" /><path
     d="m 248,392 h 64 v 64 h -64 z"
     fill="#666666"
     id="path7628" /><path
     d="m 312,392 h -64 v 17.17 A 36.285,36.285 0 0 0 281.282,431 36.281,36.281 0 0 0 306.937,420.373 L 312,415.311 Z"
     fill="#565655"
     id="path7630" /><path
     d="m 248,456 -16,16 v 16 h 96 v -16 l -16,-16 z"
     fill="#3f484f"
     id="path7632" /><path
     d="M 308.819,456 A 191.323,191.323 0 0 1 232,472 h 96 l -16,-16 z"
     fill="#2a3135"
     id="path7634" /><path
     d="M 152,80 136,96 H 88 l 48,40 48,-40 V 64 L 136,24 88,64 h 48 z"
     fill="#d1cfc3"
     id="path7636" /><path
     d="m 169.143,80 -27.429,27.428 h -40 L 88,96 h 48 L 152,80 136,64 H 88 l 13.714,-11.429 h 40 z"
     fill="#b7b2a5"
     id="path7638" /><path
     d="m 280,208 16,16 h 48 l -48,40 -48,-40 v -32 l 48,-40 48,40 h -48 z"
     fill="#d1cfc3"
     id="path7640" /><path
     d="m 262.857,208 27.429,27.428 h 40 L 344,224 h -48 l -16,-16 16,-16 h 48 l -13.714,-11.429 h -40 z"
     fill="#b7b2a5"
     id="path7642" /><path
     d="M 216,64 H 320 V 96 H 216 Z"
     fill="#ffa511"
     id="path7644" /><path
     d="m 294.873,82 a 26,26 0 0 0 4.072,14 H 320 V 64 h -17.928 a 26.031,26.031 0 0 0 -7.199,18 z"
     fill="#f08015"
     id="path7646" /><path
     d="m 365.373,51.833 h 45.255 v 192.333 h -45.255 z"
     fill="#ffa511"
     transform="matrix(0.707,-0.707,0.707,0.707,8.991,317.706)"
     id="path7648" /><path
     d="m 304,96 11.555,11.555 A 26.129,26.129 0 0 0 345.811,73.811 L 336,64 Z"
     fill="#f08015"
     id="path7650" /><path
     d="M 480,240 305.941,414.059 a 33.941,33.941 0 0 1 -24,9.941 33.941,33.941 0 0 1 -33.941,-33.941 33.941,33.941 0 0 1 9.941,-24 L 432,192 Z"
     fill="#ffa511"
     id="path7652" /><path
     d="m 403.853,220.147 a 45.169,45.169 0 0 0 52.22,43.78 L 480,240 432,192 Z"
     fill="#f08015"
     id="path7654" /><path
     d="m 440,232 32,-32 -25.762,-25.762 a 45.173,45.173 0 0 0 -38.124,25.876 z"
     fill="#f08015"
     id="path7656" /><path
     d="m 152,192 h 72 v 32 h -72 z"
     fill="#ffa511"
     id="path7658" /><path
     d="m 152,224 h 21.9 a 25.973,25.973 0 0 0 -3.153,-32 H 152 Z"
     fill="#f08015"
     id="path7660" /><path
     d="m 26.461,237.373 h 147.078 v 45.255 H 26.461 Z"
     fill="#ffa511"
     transform="matrix(0.707,-0.707,0.707,0.707,-154.558,146.863)"
     id="path7662" /><path
     d="m 127.993,200.007 a 25.99,25.99 0 0 0 28.381,35.619 L 168,224 136,192 Z"
     fill="#f08015"
     id="path7664" /><path
     d="m 32,328 89.373,89.373 a 22.627,22.627 0 0 0 16,6.627 22.628,22.628 0 0 0 22.627,-22.627 22.627,22.627 0 0 0 -6.627,-16 L 64,296 Z"
     fill="#ffa511"
     id="path7666" /><path
     d="m 64,296 -32,32 21.739,21.739 c 1.074,0.1 2.161,0.157 3.261,0.157 A 34.9,34.9 0 0 0 90.97,322.97 Z"
     fill="#f08015"
     id="path7668" /><path
     d="M 64,328 89.558,302.442 A 34.9,34.9 0 0 0 46.175,281.825 L 32,296 Z"
     fill="#f08015"
     id="path7670" /><g
     fill="#878784"
     id="g7684"><circle
       cx="56"
       cy="312"
       r="32"
       id="circle7672" /><circle
       cx="152"
       cy="208"
       r="24"
       id="circle7674" /><rect
       height="80"
       rx="16"
       width="32"
       x="216"
       y="168"
       id="rect7676" /><circle
       cx="448"
       cy="216"
       r="40"
       id="circle7678" /><rect
       height="80"
       rx="16"
       width="32"
       x="184"
       y="40"
       id="rect7680" /><circle
       cx="320"
       cy="80"
       r="24"
       id="circle7682" /></g><rect
     fill="#666666"
     height="32"
     rx="16"
     width="32"
     x="152"
     y="64"
     id="rect7686" /><rect
     fill="#666666"
     height="32"
     rx="16"
     width="32"
     x="248"
     y="192"
     id="rect7688" /><rect
     fill="#ededeb"
     height="32"
     rx="16"
     width="32"
     x="120"
     y="384"
     id="rect7690" /><rect
     fill="#ededeb"
     height="48"
     rx="24"
     width="48"
     x="256"
     y="368"
     id="rect7692" /><path
     d="M 129.425,414.575 A 15.9,15.9 0 0 1 128,408 15.979,15.979 0 0 1 150.575,393.425 15.993,15.993 0 0 0 120,400 a 15.991,15.991 0 0 0 9.425,14.575 z"
     fill="#cececc"
     id="path7694" /><path
     d="M 267.506,412.494 A 23.882,23.882 0 0 1 264,400 24,24 0 0 1 300.494,379.506 24,24 0 0 0 256,392 a 23.985,23.985 0 0 0 11.506,20.494 z"
     fill="#cececc"
     id="path7696" /><path
     d="M 74.268,285.732 A 31.994,31.994 0 0 1 29.732,330.268 32,32 0 1 0 74.268,285.732 Z"
     fill="#70706f"
     id="path7698" /><path
     d="M 64,320 H 48 v 22.992 a 32.25,32.25 0 0 0 16,0 z"
     fill="#ffdc13"
     id="path7700" /><path
     d="M 64,331.708 A 31.835,31.835 0 0 1 48,336 v 6.987 a 32.173,32.173 0 0 0 16,0 z"
     fill="#e5af17"
     id="path7702" /><path
     d="m 48,304 h 16 v -22.992 a 32.25,32.25 0 0 0 -16,0 z"
     fill="#ffdc13"
     id="path7704" /><path
     d="m 164.494,187.506 a 24,24 0 0 1 -32.988,32.988 24,24 0 1 0 32.988,-32.988 z"
     fill="#70706f"
     id="path7706" /><path
     d="M 173.66,218.346 163.314,208 152,219.314 162.346,229.66 a 24.09,24.09 0 0 0 11.314,-11.314 z"
     fill="#ffdc13"
     id="path7708" /><path
     d="m 154.346,221.66 8,8 a 24.09,24.09 0 0 0 11.314,-11.314 l -8,-8 a 24.09,24.09 0 0 1 -11.314,11.314 z"
     fill="#e5af17"
     id="path7710" /><path
     d="M 130.34,197.654 140.686,208 152,196.686 141.654,186.34 a 24.09,24.09 0 0 0 -11.314,11.314 z"
     fill="#ffdc13"
     id="path7712" /><path
     d="m 472,184 a 40,40 0 0 1 -56,56 40,40 0 1 0 56,-56 z"
     fill="#70706f"
     id="path7714" /><path
     d="m 456,232 h -16 v 23.2 a 40.3,40.3 0 0 0 16,0 z"
     fill="#ffdc13"
     id="path7716" /><path
     d="M 456,244.662 A 39.851,39.851 0 0 1 440,248 v 7.183 a 39.935,39.935 0 0 0 16,0.015 z"
     fill="#e5af17"
     id="path7718" /><path
     d="m 440,200 h 16 v -23.2 a 40.3,40.3 0 0 0 -16,0 z"
     fill="#ffdc13"
     id="path7720" /><path
     d="M 270.575,193.425 A 15.921,15.921 0 0 1 272,200 15.979,15.979 0 0 1 249.425,214.575 15.993,15.993 0 0 0 280,208 15.99,15.99 0 0 0 270.575,193.425 Z"
     fill="#565655"
     id="path7722" /><path
     d="M 174.575,65.425 A 15.921,15.921 0 0 1 176,72 15.979,15.979 0 0 1 153.425,86.575 15.993,15.993 0 0 0 184,80 15.99,15.99 0 0 0 174.575,65.425 Z"
     fill="#565655"
     id="path7724" /><path
     d="M 332.494,59.506 A 24,24 0 0 1 299.506,92.494 24,24 0 1 0 332.494,59.506 Z"
     fill="#70706f"
     id="path7726" /><path
     d="M 330.346,58.34 320,68.686 331.314,80 341.66,69.654 A 24.09,24.09 0 0 0 330.346,58.34 Z"
     fill="#ffdc13"
     id="path7728" /><path
     d="M 341.656,69.659 A 24.107,24.107 0 0 0 332.494,59.506 23.884,23.884 0 0 1 336,72 a 24.182,24.182 0 0 1 -0.267,3.582 z"
     fill="#e5af17"
     id="path7730" /><path
     d="M 309.654,101.66 320,91.314 308.686,80 298.34,90.346 a 24.09,24.09 0 0 0 11.314,11.314 z"
     fill="#ffdc13"
     id="path7732" /><path
     d="M 315.582,95.733 A 24.182,24.182 0 0 1 312,96 a 23.884,23.884 0 0 1 -12.494,-3.506 24.107,24.107 0 0 0 10.153,9.162 z"
     fill="#e5af17"
     id="path7734" /><path
     d="M 206.575,41.425 A 15.9,15.9 0 0 1 208,48 V 96 A 15.979,15.979 0 0 1 185.425,110.575 15.993,15.993 0 0 0 216,104 V 56 a 15.99,15.99 0 0 0 -9.425,-14.575 z"
     fill="#70706f"
     id="path7736" /><path
     d="M 238.575,169.425 A 15.9,15.9 0 0 1 240,176 v 48 A 15.979,15.979 0 0 1 217.425,238.575 15.993,15.993 0 0 0 248,232 v -48 a 15.99,15.99 0 0 0 -9.425,-14.575 z"
     fill="#70706f"
     id="path7738" /></g><g
   id="Flat"
   transform="matrix(0.34482907,0,0,0.34482907,-3.2758977,126.7241)"><path
     d="m 207.997,104 h -80 V 88 l 40,-24 h 40 z"
     fill="#f98500"
     id="path10515" /><path
     d="m 207.997,152 h -80 v 16 l 40,24 h 40 z"
     fill="#f98500"
     id="path10517" /><path
     d="m 207.997,80 h 32 v 96 h -32 z"
     fill="#ffb531"
     id="path10519" /><path
     d="m 240,96 h 40 a 32,32 0 0 1 32,32 32,32 0 0 1 -32,32 h -40 z"
     fill="#f98500"
     id="path10521" /><rect
     fill="#f98500"
     height="304"
     rx="40"
     width="80"
     x="407.99701"
     y="24"
     id="rect10523" /><path
     d="m 407.998,208 h 80 v 16 h -80 z"
     fill="#fa6d00"
     id="path10525" /><path
     d="M 448,496 H 336 v -64 l 16,-24 v -48 a 40,40 0 0 1 40,-40 40,40 0 0 1 40,40 v 48 l 16,24 z"
     fill="#ffb531"
     id="path10527" /><rect
     fill="#ff9419"
     height="16"
     rx="8"
     width="80"
     x="367.99799"
     y="424"
     id="rect10529" /><path
     d="m 455.58,248.737 -0.124,-0.024 a 39.894,39.894 0 0 0 -39.565,15.381 L 359.7,329.038 a 39.251,39.251 0 0 0 -7,15.962 39.649,39.649 0 0 0 31.712,46.267 l 0.125,0.024 A 39.893,39.893 0 0 0 424.1,375.905 l 56.2,-64.943 A 39.235,39.235 0 0 0 487.292,295 39.647,39.647 0 0 0 455.58,248.737 Z"
     fill="#ffa912"
     id="path10531" /><path
     d="m 477.3,91.66 a 38.456,38.456 0 0 1 -14.08,9.8 l -103.32,41.41 -14.86,5.96 -21.24,8.51 a 36.88,36.88 0 0 1 -40,-8.34 l -0.08,-0.09 C 268.5,133.69 268.04,108.36 282.69,92.34 a 38.622,38.622 0 0 1 14.08,-9.8 l 16.54,-6.63 14.86,-5.96 108.02,-43.29 a 36.88,36.88 0 0 1 40,8.34 l 0.09,0.09 c 15.21,15.22 15.67,40.55 1.02,56.57 z"
     fill="#ffb531"
     id="path10533" /><path
     d="m 359.9,142.87 -14.86,5.96 -31.73,-72.92 14.86,-5.96 z"
     fill="#f98500"
     id="path10535" /><path
     d="m 336,464 h -64 a 16.018,16.018 0 0 1 -16,-16 v -24 h 16 v 24 h 64 z"
     fill="#348fd9"
     id="path10537" /><path
     d="m 336,496 h -72 a 40.045,40.045 0 0 1 -40,-40 v -32 h 16 v 32 a 24.027,24.027 0 0 0 24,24 h 72 z"
     fill="#f35244"
     id="path10539" /><path
     d="m 207.997,488 h -80 l 16,-56 h 48 z"
     fill="#cfcfcd"
     id="path10541" /><path
     d="m 103.998,480 h 128 v 16 h -128 z"
     fill="#e0e0de"
     id="path10543" /><path
     d="m 312,392 v 16 a 24.006,24.006 0 0 1 -24,24 H 48 A 24,24 0 0 1 24,408 v -16 z"
     fill="#e0e0de"
     id="path10545" /><path
     d="M 312,256 V 392 H 24 V 256 a 24,24 0 0 1 24,-24 h 240 a 24.006,24.006 0 0 1 24,24 z"
     fill="#348fd9"
     id="path10547" /><path
     d="M 312,256 V 392 H 106.31 L 269.02,232 H 288 a 24.006,24.006 0 0 1 24,24 z"
     fill="#3086cd"
     id="path10549" /><path
     d="m 24,376 h 288 v 16 H 24 Z"
     fill="#3086cd"
     id="path10551" /><path
     d="m 312,392 v 16 a 24.006,24.006 0 0 1 -24,24 H 65.63 l 40.68,-40 z"
     fill="#d6d6d4"
     id="path10553" /><path
     d="m 264,360 v 32 h -68.29 a 32,32 0 1 0 -55.42,0 H 72 v -32 h 25.8 a 71.855,71.855 0 0 1 9.25,-22.32 L 88.8,319.43 111.43,296.8 129.68,315.05 A 71.4,71.4 0 0 1 152,305.81 V 280 h 32 v 25.81 a 71.6,71.6 0 0 1 22.32,9.24 l 18.25,-18.25 22.62,22.63 -18.25,18.25 a 71.378,71.378 0 0 1 9.25,22.32 z"
     fill="#f35244"
     id="path10555" /><path
     d="m 47.998,256 h 16 v 16 h -16 z"
     fill="#62a9e6"
     id="path10557" /><path
     d="m 47.998,288 h 16 v 48 h -16 z"
     fill="#62a9e6"
     id="path10559" /><g
     fill="#e64c3f"
     id="g10565"><path
       d="m 136,376 a 31.791,31.791 0 0 0 4.29,16 H 72 v -16 z"
       id="path10561" /><path
       d="m 264,376 v 16 H 195.71 A 31.892,31.892 0 0 0 200,376 Z"
       id="path10563" /></g></g></svg>
